<?xml version="1.0" encoding="UTF-8" standalone="no"?> <svg> <defs/> <g transform="translate(261.97119,-88.261168)"> <g transform="translate(-52.822173,17.008929)"> <path d="m -203.44485,80.660573 q -0.13758,0 -0.30692,-0.08467 -0.15875,-0.08467 -0.27516,-0.232833 -0.24342,0.3175 -0.64559,0.3175 h -0.94192 q -0.80433,0 -1.17475,-0.3175 -0.35983,-0.328084 -0.35983,-1.11125 v -0.211667 q 0,-1.640417 1.54516,-1.640417 h 1.31234 V 76.85057 q 0,-0.328084 -0.20108,-0.508 -0.20109,-0.179917 -0.59267,-0.179917 h -1.64042 v -0.79375 h 1.53458 q 0.92076,0 1.35468,0.402167 0.4445,0.402166 0.4445,1.291166 v 2.54 q 0,0.15875 0.11641,0.243417 0.127,0.07408 0.41275,0.07408 v 0.740834 z m -1.33351,-0.79375 q 0.31751,0 0.40218,-0.148166 0.0847,-0.148168 0.0847,-0.381 v -1.164168 h -1.32293 q -0.27517,0 -0.45508,0.179917 -0.17992,0.179917 -0.17992,0.455083 v 0.529168 q 0,0.275166 0.127,0.402166 0.127,0.127 0.40217,0.127 z" style="font-style:normal;font-variant:normal;font-weight:normal;font-stretch:normal;font-size:medium;line-height:6.61458302px;font-family:'Share Tech Mono';-inkscape-font-specification:'Share Tech Mono';letter-spacing:0px;word-spacing:0px;fill:#000000;fill-opacity:1;stroke:none;stroke-width:0.26458332px;stroke-linecap:butt;stroke-linejoin:miter;stroke-opacity:1" /> <path d="m -200.14219,80.660573 q -0.93135,0 -1.36525,-0.391584 -0.43392,-0.402166 -0.43392,-1.30175 v -1.905 q 0,-0.889 0.43392,-1.291166 0.4445,-0.402167 1.36525,-0.402167 h 1.36525 v 0.79375 h -1.4711 q -0.39157,0 -0.59265,0.179917 -0.2011,0.179916 -0.2011,0.508 v 2.328334 q 0,0.328082 0.2011,0.508 0.20108,0.179916 0.59265,0.179916 h 1.4711 v 0.79375 z" style="font-style:normal;font-variant:normal;font-weight:normal;font-stretch:normal;font-size:medium;line-height:6.61458302px;font-family:'Share Tech Mono';-inkscape-font-specification:'Share Tech Mono';letter-spacing:0px;word-spacing:0px;fill:#000000;fill-opacity:1;stroke:none;stroke-width:0.26458332px;stroke-linecap:butt;stroke-linejoin:miter;stroke-opacity:1" /> <path d="m -195.31555,80.660573 q -0.53975,0 -0.8255,-0.34925 -0.28575,-0.34925 -0.28575,-0.92075 v -3.227917 h -1.0054 v -0.79375 h 1.0054 v -1.27 h 0.89958 v 1.27 h 1.54517 v 0.79375 h -1.54517 v 3.280833 q 0,0.232834 0.11642,0.328084 0.11642,0.09525 0.35983,0.09525 h 1.06892 v 0.79375 z" style="font-style:normal;font-variant:normal;font-weight:normal;font-stretch:normal;font-size:medium;line-height:6.61458302px;font-family:'Share Tech Mono';-inkscape-font-specification:'Share Tech Mono';letter-spacing:0px;word-spacing:0px;fill:#000000;fill-opacity:1;stroke:none;stroke-width:0.26458332px;stroke-linecap:butt;stroke-linejoin:miter;stroke-opacity:1" /> <path inkscape:connector-curvature="0" d="m -193.07123,76.162656 v -0.79375 h 2.45534 v 4.497917 h 1.56633 v 0.79375 h -2.46592 v -4.497917 z" style="font-style:normal;font-variant:normal;font-weight:normal;font-stretch:normal;font-size:medium;line-height:6.61458302px;font-family:'Share Tech Mono';-inkscape-font-specification:'Share Tech Mono';letter-spacing:0px;word-spacing:0px;fill:#000000;fill-opacity:1;stroke:none;stroke-width:0.26458332px;stroke-linecap:butt;stroke-linejoin:miter;stroke-opacity:1" /> <path d="m -184.44516,78.967239 q 0,0.889 -0.4445,1.291168 -0.43391,0.402166 -1.35466,0.402166 h -0.34925 q -0.92075,0 -1.36525,-0.402166 -0.43392,-0.402168 -0.43392,-1.291168 v -1.905 q 0,-0.889 0.43392,-1.291166 0.4445,-0.402167 1.36525,-0.402167 h 0.34925 q 0.92075,0 1.35466,0.402167 0.4445,0.402166 0.4445,1.291166 z m -0.89958,-2.116666 q 0,-0.328084 -0.20108,-0.508 -0.20109,-0.179917 -0.59267,-0.179917 h -0.56092 q -0.39158,0 -0.59266,0.179917 -0.20109,0.179916 -0.20109,0.508 v 2.328334 q 0,0.328082 0.20109,0.508 0.20108,0.179916 0.59266,0.179916 h 0.56092 q 0.39158,0 0.59267,-0.179916 0.20108,-0.179918 0.20108,-0.508 z" style="font-style:normal;font-variant:normal;font-weight:normal;font-stretch:normal;font-size:medium;line-height:6.61458302px;font-family:'Share Tech Mono';-inkscape-font-specification:'Share Tech Mono';letter-spacing:0px;word-spacing:0px;fill:#000000;fill-opacity:1;stroke:none;stroke-width:0.26458332px;stroke-linecap:butt;stroke-linejoin:miter;stroke-opacity:1" /> <path d="m -182.857,75.368906 v 0.254 q 0.32808,-0.254 0.84667,-0.254 h 0.48683 q 0.85725,0 1.27,0.402167 0.42334,0.402166 0.42334,1.291166 v 3.598334 h -0.89959 v -3.81 q 0,-0.3175 -0.1905,-0.497417 -0.17992,-0.1905 -0.49742,-0.1905 h -0.6985 q -0.34925,0 -0.51858,0.1905 -0.16933,0.179917 -0.16933,0.391583 v 3.915834 h -0.89959 v -5.291667 z" style="font-style:normal;font-variant:normal;font-weight:normal;font-stretch:normal;font-size:medium;line-height:6.61458302px;font-family:'Share Tech Mono';-inkscape-font-specification:'Share Tech Mono';letter-spacing:0px;word-spacing:0px;fill:#000000;fill-opacity:1;stroke:none;stroke-width:0.26458332px;stroke-linecap:butt;stroke-linejoin:miter;stroke-opacity:1" /> <path sodipodi:nodetypes="ccccccccccccc" d="m -177.83984,84.68224 v -8.519584 h -1.00542 v -0.79375 h 1.00542 v -1.27 h 0.89958 v 1.27 h 1.54517 v 0.79375 h -1.54517 v 8.5725 z" style="font-style:normal;font-variant:normal;font-weight:normal;font-stretch:normal;font-size:medium;line-height:6.61458302px;font-family:'Share Tech Mono';-inkscape-font-specification:'Share Tech Mono';letter-spacing:0px;word-spacing:0px;fill:#000000;fill-opacity:1;stroke:none;stroke-width:0.26458332px;stroke-linecap:butt;stroke-linejoin:miter;stroke-opacity:1" /> <path d="m -172.53694,80.660573 q -0.93133,0 -1.36525,-0.391584 -0.43391,-0.402166 -0.43391,-1.30175 v -1.905 q 0,-0.910166 0.39158,-1.30175 0.39158,-0.391583 1.30175,-0.391583 h 0.49742 q 0.75141,0 1.13241,0.423333 0.39159,0.41275 0.39159,1.217084 v 1.375833 h -2.81517 v 0.793751 q 0,0.328082 0.20108,0.508 0.20109,0.179916 0.59267,0.179916 h 1.68275 v 0.79375 z m 1.03717,-3.862917 q 0,-0.275167 -0.17992,-0.455083 -0.17991,-0.179917 -0.45508,-0.179917 h -0.61383 q -0.381,0 -0.53975,0.179917 -0.14817,0.169333 -0.14817,0.508 v 0.740833 h 1.93675 z" style="font-style:normal;font-variant:normal;font-weight:normal;font-stretch:normal;font-size:medium;line-height:6.61458302px;font-family:'Share Tech Mono';-inkscape-font-specification:'Share Tech Mono';letter-spacing:0px;word-spacing:0px;fill:#000000;fill-opacity:1;stroke:none;stroke-width:0.26458332px;stroke-linecap:butt;stroke-linejoin:miter;stroke-opacity:1" /> <path d="m -167.61503,80.660573 q -0.93134,0 -1.36525,-0.391584 -0.43392,-0.402166 -0.43392,-1.30175 v -1.905 q 0,-0.889 0.43392,-1.291166 0.4445,-0.402167 1.36525,-0.402167 h 1.36525 v 0.79375 h -1.47109 q -0.39158,0 -0.59266,0.179917 -0.20109,0.179916 -0.20109,0.508 v 2.328334 q 0,0.328082 0.20109,0.508 0.20108,0.179916 0.59266,0.179916 h 1.47109 v 0.79375 z" style="font-style:normal;font-variant:normal;font-weight:normal;font-stretch:normal;font-size:medium;line-height:6.61458302px;font-family:'Share Tech Mono';-inkscape-font-specification:'Share Tech Mono';letter-spacing:0px;word-spacing:0px;fill:#000000;fill-opacity:1;stroke:none;stroke-width:0.26458332px;stroke-linecap:butt;stroke-linejoin:miter;stroke-opacity:1" /> <path d="m -164.21713,73.252239 v 2.328334 q 0.3175,-0.211667 0.79375,-0.211667 h 0.48683 q 0.85725,0 1.27,0.402167 0.42335,0.402166 0.42335,1.291166 v 3.598334 h -0.8996 v -3.81 q 0,-0.3175 -0.1905,-0.497417 -0.1799,-0.1905 -0.4974,-0.1905 h -0.6985 q -0.33868,0 -0.508,0.179917 -0.16935,0.169333 -0.17993,0.370416 v 3.947584 h -0.89957 v -7.408334 z" style="font-style:normal;font-variant:normal;font-weight:normal;font-stretch:normal;font-size:medium;line-height:6.61458302px;font-family:'Share Tech Mono';-inkscape-font-specification:'Share Tech Mono';letter-spacing:0px;word-spacing:0px;fill:#000000;fill-opacity:1;stroke:none;stroke-width:0.26458332px;stroke-linecap:butt;stroke-linejoin:miter;stroke-opacity:1" /> <path d="m -206.02719,86.317042 v -3.704166 h -0.77258 v -0.79375 h 1.61925 v 0.28575 q 0.34925,-0.28575 0.84667,-0.28575 h 1.09008 v 0.846667 h -1.19591 q -0.33868,0 -0.50801,0.22225 -0.16933,0.211667 -0.17992,0.433916 v 2.995083 h 1.15359 v 0.79375 h -2.82575 v -0.79375 z" style="font-style:normal;font-variant:normal;font-weight:normal;font-stretch:normal;font-size:medium;line-height:6.61458302px;font-family:'Share Tech Mono';-inkscape-font-specification:'Share Tech Mono';letter-spacing:0px;word-spacing:0px;fill:#000000;fill-opacity:1;stroke:none;stroke-width:0.26458332px;stroke-linecap:butt;stroke-linejoin:miter;stroke-opacity:1" /> <path d="m -200.41736,87.110792 q -0.93133,0 -1.36525,-0.391583 -0.43393,-0.402167 -0.43393,-1.30175 v -1.905 q 0,-0.910166 0.3916,-1.301749 0.39158,-0.391584 1.30175,-0.391584 h 0.4974 q 0.75143,0 1.13243,0.423334 0.39157,0.41275 0.39157,1.217083 v 1.375833 h -2.81515 v 0.79375 q 0,0.328083 0.20108,0.508 0.20107,0.179916 0.59267,0.179916 h 1.68275 v 0.79375 z m 1.03717,-3.862916 q 0,-0.275166 -0.17992,-0.455083 -0.17993,-0.179917 -0.45508,-0.179917 h -0.61385 q -0.381,0 -0.53975,0.179917 -0.14815,0.169333 -0.14815,0.508 v 0.740833 h 1.93675 z" style="font-style:normal;font-variant:normal;font-weight:normal;font-stretch:normal;font-size:medium;line-height:6.61458302px;font-family:'Share Tech Mono';-inkscape-font-specification:'Share Tech Mono';letter-spacing:0px;word-spacing:0px;fill:#000000;fill-opacity:1;stroke:none;stroke-width:0.26458332px;stroke-linecap:butt;stroke-linejoin:miter;stroke-opacity:1" /> <path d="m -196.79721,81.819126 v 0.254 q 0.32808,-0.254 0.84666,-0.254 h 0.381 q 0.93133,0 1.36525,0.402167 0.43392,0.391583 0.43392,1.291166 v 1.905 q 0,0.889 -0.4445,1.291167 -0.43392,0.402166 -1.35467,0.402166 h -1.17475 v 1.799167 h -0.89957 v -7.090833 z m 0.74083,0.79375 q -0.34925,0 -0.51858,0.1905 -0.16934,0.179917 -0.16934,0.391584 v 3.122082 h 1.28058 q 0.39159,0 0.59267,-0.179916 0.20108,-0.179917 0.20108,-0.508 v -2.328333 q 0,-0.328083 -0.20108,-0.508 -0.20108,-0.179917 -0.59267,-0.179917 z" style="font-style:normal;font-variant:normal;font-weight:normal;font-stretch:normal;font-size:medium;line-height:6.61458302px;font-family:'Share Tech Mono';-inkscape-font-specification:'Share Tech Mono';letter-spacing:0px;word-spacing:0px;fill:#000000;fill-opacity:1;stroke:none;stroke-width:0.26458332px;stroke-linecap:butt;stroke-linejoin:miter;stroke-opacity:1" /> <path d="m -189.09189,85.417459 q 0,0.889 -0.4445,1.291167 -0.43392,0.402166 -1.35467,0.402166 h -0.34925 q -0.92075,0 -1.36525,-0.402166 -0.43392,-0.402167 -0.43392,-1.291167 v -1.905 q 0,-0.888999 0.43392,-1.291166 0.4445,-0.402167 1.36525,-0.402167 h 0.34925 q 0.92075,0 1.35467,0.402167 0.4445,0.402167 0.4445,1.291166 z m -0.89959,-2.116666 q 0,-0.328083 -0.20108,-0.508 -0.20108,-0.179917 -0.59267,-0.179917 h -0.56091 q -0.39159,0 -0.59267,0.179917 -0.20108,0.179917 -0.20108,0.508 v 2.328333 q 0,0.328083 0.20108,0.508 0.20108,0.179916 0.59267,0.179916 h 0.56091 q 0.39159,0 0.59267,-0.179916 0.20108,-0.179917 0.20108,-0.508 z" style="font-style:normal;font-variant:normal;font-weight:normal;font-stretch:normal;font-size:medium;line-height:6.61458302px;font-family:'Share Tech Mono';-inkscape-font-specification:'Share Tech Mono';letter-spacing:0px;word-spacing:0px;fill:#000000;fill-opacity:1;stroke:none;stroke-width:0.26458332px;stroke-linecap:butt;stroke-linejoin:miter;stroke-opacity:1" /> <path d="m -184.80499,85.787876 q 0,0.66675 -0.41275,0.994833 -0.40217,0.328083 -1.17475,0.328083 h -1.57692 v -0.79375 h 1.68275 q 0.28575,0 0.43392,-0.116416 0.14817,-0.127 0.14817,-0.359834 v -0.560916 q 0,-0.47625 -0.45509,-0.47625 h -0.39158 q -0.74083,0 -1.11125,-0.3175 -0.35983,-0.328083 -0.35983,-1.026583 v -0.306917 q 0,-0.709083 0.40216,-1.016 0.40217,-0.3175 1.18534,-0.3175 h 1.41816 v 0.79375 h -1.524 q -0.26458,0 -0.42333,0.127 -0.15875,0.116417 -0.15875,0.34925 v 0.381 q 0,0.243417 0.13758,0.359833 0.14817,0.116417 0.37042,0.116417 h 0.35983 q 0.70909,0 1.0795,0.34925 0.37042,0.338667 0.37042,1.016 z" style="font-style:normal;font-variant:normal;font-weight:normal;font-stretch:normal;font-size:medium;line-height:6.61458302px;font-family:'Share Tech Mono';-inkscape-font-specification:'Share Tech Mono';letter-spacing:0px;word-spacing:0px;fill:#000000;fill-opacity:1;stroke:none;stroke-width:0.26458332px;stroke-linecap:butt;stroke-linejoin:miter;stroke-opacity:1" /> <path style="font-style:normal;font-variant:normal;font-weight:normal;font-stretch:normal;font-size:medium;line-height:6.61458302px;font-family:'Share Tech Mono';-inkscape-font-specification:'Share Tech Mono';letter-spacing:0px;word-spacing:0px;fill:#000000;fill-opacity:1;stroke:none;stroke-width:0.26458332px;stroke-linecap:butt;stroke-linejoin:miter;stroke-opacity:1" d="m -183.77775,82.612876 v -0.79375 h 2.45533 v 4.497916 h 1.56634 v 0.79375 h -2.46592 v -4.497916 z" /> <path d="m -176.72859,87.110792 q -0.53975,0 -0.8255,-0.34925 -0.28575,-0.34925 -0.28575,-0.92075 v -3.227916 h -1.00542 v -0.79375 h 1.00542 v -1.27 h 0.89958 v 1.27 h 1.54517 v 0.79375 h -1.54517 v 3.280833 q 0,0.232833 0.11642,0.328083 0.11641,0.09525 0.35983,0.09525 h 1.06892 v 0.79375 z" style="font-style:normal;font-variant:normal;font-weight:normal;font-stretch:normal;font-size:medium;line-height:6.61458302px;font-family:'Share Tech Mono';-inkscape-font-specification:'Share Tech Mono';letter-spacing:0px;word-spacing:0px;fill:#000000;fill-opacity:1;stroke:none;stroke-width:0.26458332px;stroke-linecap:butt;stroke-linejoin:miter;stroke-opacity:1" /> <path d="m -170.50494,85.417459 q 0,0.889 -0.4445,1.291167 -0.43391,0.402166 -1.35466,0.402166 h -0.34925 q -0.92075,0 -1.36525,-0.402166 -0.43392,-0.402167 -0.43392,-1.291167 v -1.905 q 0,-0.888999 0.43392,-1.291166 0.4445,-0.402167 1.36525,-0.402167 h 0.34925 q 0.92075,0 1.35466,0.402167 0.4445,0.402167 0.4445,1.291166 z m -0.89958,-2.116666 q 0,-0.328083 -0.20108,-0.508 -0.20109,-0.179917 -0.59267,-0.179917 h -0.56092 q -0.39158,0 -0.59266,0.179917 -0.20109,0.179917 -0.20109,0.508 v 2.328333 q 0,0.328083 0.20109,0.508 0.20108,0.179916 0.59266,0.179916 h 0.56092 q 0.39158,0 0.59267,-0.179916 0.20108,-0.179917 0.20108,-0.508 z" style="font-style:normal;font-variant:normal;font-weight:normal;font-stretch:normal;font-size:medium;line-height:6.61458302px;font-family:'Share Tech Mono';-inkscape-font-specification:'Share Tech Mono';letter-spacing:0px;word-spacing:0px;fill:#000000;fill-opacity:1;stroke:none;stroke-width:0.26458332px;stroke-linecap:butt;stroke-linejoin:miter;stroke-opacity:1" /> <path d="m -168.85328,86.317042 v -3.704166 h -0.77259 v -0.79375 h 1.61925 v 0.28575 q 0.34925,-0.28575 0.84667,-0.28575 h 1.09008 v 0.846667 h -1.19591 q -0.33867,0 -0.508,0.22225 -0.16934,0.211667 -0.17992,0.433916 v 2.995083 h 1.15358 v 0.79375 h -2.82575 v -0.79375 z" style="font-style:normal;font-variant:normal;font-weight:normal;font-stretch:normal;font-size:medium;line-height:6.61458302px;font-family:'Share Tech Mono';-inkscape-font-specification:'Share Tech Mono';letter-spacing:0px;word-spacing:0px;fill:#000000;fill-opacity:1;stroke:none;stroke-width:0.26458332px;stroke-linecap:butt;stroke-linejoin:miter;stroke-opacity:1" /> <path d="m -164.13245,88.116209 q 0.254,0 0.381,-0.09525 0.127,-0.09525 0.1905,-0.328083 l 0.14815,-0.582084 h -0.21165 l -1.74625,-5.291666 h 0.97365 l 1.32292,4.434416 1.15358,-4.434416 h 0.92075 l -1.6404,5.863166 q -0.1376,0.53975 -0.33868,0.804334 -0.20107,0.264583 -0.45507,0.338666 -0.24343,0.08467 -0.635,0.08467 h -0.508 v -0.79375 z" style="font-style:normal;font-variant:normal;font-weight:normal;font-stretch:normal;font-size:medium;line-height:6.61458302px;font-family:'Share Tech Mono';-inkscape-font-specification:'Share Tech Mono';letter-spacing:0px;word-spacing:0px;fill:#000000;fill-opacity:1;stroke:none;stroke-width:0.26458332px;stroke-linecap:butt;stroke-linejoin:miter;stroke-opacity:1" /> </g> </g> </svg>
