<?xml version="1.0" encoding="utf-8"?>
<!-- Generator: Adobe Illustrator 17.1.0, SVG Export Plug-In . SVG Version: 6.00 Build 0)  -->
<!DOCTYPE svg [
	<!ENTITY ns_flows "http://ns.adobe.com/Flows/1.0/">
	<!ENTITY ns_extend "http://ns.adobe.com/Extensibility/1.0/">
	<!ENTITY ns_ai "http://ns.adobe.com/AdobeIllustrator/10.0/">
	<!ENTITY ns_graphs "http://ns.adobe.com/Graphs/1.0/">
]>
<svg version="1.2" baseProfile="tiny" id="Layer_1" xmlns:x="&ns_extend;" xmlns:i="&ns_ai;" xmlns:graph="&ns_graphs;"
	 xmlns="http://www.w3.org/2000/svg" xmlns:xlink="http://www.w3.org/1999/xlink" xmlns:a="http://ns.adobe.com/AdobeSVGViewerExtensions/3.0/"
	 x="0px" y="0px" viewBox="0 0 344.7 58.5" xml:space="preserve">
<g>
	<path fill="#64D21F" d="M240.2,9.8c0.1,1.2,0.1,1.6,0.1,1.4c0,1-0.4,1.9-1.3,2.5c-0.6,0.4-3,1-7.3,1.9c-1.9,0.3-3.7,0.6-5.6,0.9
		c-2.1,0.4-4.8,1.1-8.2,2.3c-0.6,0.2-1.1,0.8-1.7,1.8c-0.6,1-0.9,1.8-1,2.5c0.4,0.4,1.1,0.7,2.1,0.7c0.4,0,1.6-0.2,3.8-0.5
		c2.4-0.3,4.1-0.7,5.2-1.2c1.1-0.6,2.2-1.1,3.3-1.7c0.9,0.3,1.6,1.2,2.3,2.7c0.7,1.5,1,2.9,1,4.3c0,1.5-0.5,2.7-1.5,3.4
		c-0.8,0.6-2,0.9-3.6,1.1c-1.3,0.1-2.6,0.2-3.8,0.4c-1.7,0.4-4.3,0.8-7.8,1.4c-0.8,0.1-1.7,0.1-2.5,0.1c-1,0.1-1.8,0.3-2.4,0.6
		c-0.6,0.3-0.9,0.8-0.9,1.3c0,0.1,0,0.3,0.1,0.4c1.2,1.6,2.7,2.4,4.6,2.4c1.3,0,2.7-0.4,4.1-1.1c0.3-0.1,1.2-0.4,2.9-1.1
		c1.3-0.5,2.1-0.7,2.5-0.7c0.1,0,0.1,0,0.2,0c1.7,1.5,2.6,3.4,2.6,5.9c0,1.5-0.4,2.8-1.2,3.9c-0.9,1.2-2.2,2.1-3.8,2.4
		c-0.3,0.2-0.9,0.5-1.8,0.9c-0.8,0.3-2.1,0.4-3.8,0.4c-5.5-0.2-9.6-2.1-12.1-5.7c-1.5-2.1-2.2-4.7-2.2-7.7c0-1.6,0.2-3.2,0.6-4.9
		c0.7-2.7,1.7-5.5,3.2-8.4c1.5-2.9,3-5.9,4.6-8.8c0.1-0.2,0.3-1,0.6-2.3c0.3-1,0.7-1.8,1.2-2.4c0.5-0.6,1.5-1.1,2.9-1.5
		c1.2-0.3,2.4-0.6,3.7-0.8c3.7-0.8,8.9-2.1,15.5-3.9c0.3-0.1,0.8-0.1,1.7,0.2c0.9,0.3,1.5,0.6,1.7,1c0.4,0.9,0.9,2.2,1.7,3.8
		C240,8.3,240.1,9,240.2,9.8z M46,30.9c-0.1,1-0.5,2.4-1.2,4.1c-0.8,2-1.3,3.3-1.5,4.2c-0.6,2.8-1,5.6-1.3,8.3
		c-0.1,0.4-0.1,1.1,0,1.9c0.1,1.2,0.1,1.9,0.1,2.1c0,2.5-0.8,3.9-2.5,4.3l-1.1,0.4c-0.5,0.2-0.9,0.2-1.1,0.2
		c-0.7-0.2-1.9-0.7-3.3-1.3c-0.5-0.3-0.8-1-0.9-2.1v-2.5c0-0.2,0-0.7,0-1.3c0-0.6,0-1.1,0-1.3c0-0.2,0.1-0.5,0.2-0.9
		c0.1-0.4,0.2-0.7,0.2-0.9c0-0.4-0.2-0.8-0.5-1.1c-0.5-0.1-0.8-0.1-0.9,0c-2.5,1.4-5.5,2.2-8.9,2.4c-3.4,0.1-6.7-0.3-9.8-1.4
		c-3.2-1.1-5.6-2.6-7.1-4.6c-0.6-0.8-1.2-2-1.6-3.7c-0.4-1.7-0.6-3.3-0.6-5c0-1.1,0.1-2.1,0.3-3c0.2-0.9,0.6-2.2,1.1-3.8
		c0.1-0.4,1-1.9,2.6-4.4c0.8-1.1,2-2.6,3.5-4.6c0.6-0.9,2.2-2.5,4.8-4.7c1.8-1.5,3.5-3.1,5.3-4.6c1.7-1.5,3-2.5,3.9-3
		c1.3-0.8,2.9-1.2,4.8-1.4c0.5,0,1.2,0.1,2.1,0.4c0.7,0.3,1.4,0.6,2.2,0.9c1.2,0.5,2.1,1.7,2.9,3.5c0.8,1.8,1.1,3.5,1.1,5.3
		c0,2-0.6,3.3-1.7,3.7c-0.7,0.3-1.7,0.2-2.8-0.4c-0.4-0.2-1-1.1-1.7-2.8c-0.6-1.5-1.3-2.2-2-2.2c-1.1,0-2.6,0.7-4.6,2
		c-1.6,1.1-3.1,2.4-4.4,3.7c-3.5,3.5-6,6.3-7.5,8.4c-1.8,2.5-3.1,5.1-3.8,7.6c-0.2,0.7-0.1,1.5,0.4,2.2c0.6,1,1.7,1.8,3.4,2.2
		c1.5,0.3,3,0.6,4.5,0.9c0.3,0.2,0.7,0.5,1.3,0.8c1,0,1.9,0,2.8,0c5.6-0.1,9.4-1.2,11.5-3.5c0.3-0.3,0.4-0.7,0.4-1.3
		c0-0.4-0.2-0.7-0.5-0.8c-0.4,0.1-2.6,0.5-6.5,1.3c-2.7,0.6-5,0.9-7.1,1.1c-0.5,0-1.1-0.4-1.7-1.2c-0.6-0.8-1-1.6-1.1-2.5
		c-0.1-0.3-0.1-0.7-0.1-1.2c0-2.6,0.6-4.1,1.7-4.6c2.2-1,5.6-1.8,10-2.5c6-1,9.4-1.6,10-1.7c0.5-0.1,1.1-0.1,1.8,0
		c0.9,0.1,1.5,0.3,1.9,0.6c1.1,0.9,1.9,2.1,2.5,3.7C45.8,28.2,46.1,29.6,46,30.9z M77.5,42.5c-0.3,0.6-1.3,1.9-2.8,3.8
		c-0.3,0.4-1.1,0.6-2.5,0.6c-0.7,0-1.3-0.1-1.8-0.2c-0.4-0.2-1.1-0.8-2.1-1.9c-0.6-0.7-1.3-1.5-1.9-2.2c-2.2-2.3-4.2-3.9-5.8-5
		c-0.7-0.4-1.7-1.1-3-2.1c-0.3,0-0.7,0.3-1,0.9c-0.3,0.9-0.4,1.5-0.4,2c0,0.1,0,1.1,0.2,2.7c0.2,1.9,0.3,3.3,0.3,4.2
		c0,1-0.1,1.7-0.2,2L56,48.1c-0.2,0.4-0.5,0.6-0.8,0.6c-1.7,0.3-3,0.1-4-0.4c-1-0.6-1.8-1.6-2.3-3c-0.4-1.2-0.7-2.5-0.7-3.8
		c0-0.9,0.1-2.2,0.4-4c0.3-1.7,0.4-2.9,0.4-3.6c0-0.3,0-0.6,0-0.9c0-0.1-0.3-0.4-0.7-0.9c-0.5-0.5-0.7-0.9-0.8-1.2
		c-0.3-1.1-0.5-2.1-0.5-2.9c0-1.6,0.5-2.9,1.7-3.8c0.1-0.1,0.5-0.1,1.3-0.2c0.6-0.1,1-0.4,1.2-0.9c0.8-2.1,1.3-4.4,1.7-7.1
		c0-0.1-0.1-0.2-0.3-0.4l-0.5-0.4c-0.7-0.8-1.1-1.7-1.3-2.5c-0.1-0.3-0.1-0.6-0.1-1c0-1.3,0.4-2.7,1.1-4c0.8-1.5,1.7-2.5,2.9-2.9
		c1.9-0.7,4.2-1.1,7-1c3.3,0,6.2,1.7,8.6,5.2c2.2,3.2,3.3,6.6,3.3,10.2c0,1.5-0.2,2.8-0.7,3.9c-0.3,1-0.9,2.4-1.7,4.2
		c-0.5,0.7-1,1.3-1.4,2c-0.8,1.1-1.2,1.8-1.2,1.9c0,0.3,0.3,0.7,1,1.3c0.6,0.6,1.5,1.2,2.8,2c1.6,1,2.7,1.7,3.3,2.1
		c1.6,1.2,2.4,2.7,2.4,4.6C77.9,41.4,77.7,42,77.5,42.5z M207.2,16c0.1,1.8-0.7,3.7-2.3,5.7c-1.2,1.5-2.7,2.9-4.4,4.1
		c-1.5,1-3.8,2-7.1,3.1L190,30c-0.4,0.2-0.8,1.4-1.2,3.9c-0.4,2.1-0.6,3.7-0.6,4.7v6.2c-0.1,0.7-0.3,1.3-0.5,2
		c-0.3,0.9-0.8,1.5-1.5,1.9c-0.7,0.4-1.5,0.4-2.4,0.2c-0.7-0.2-1.1-0.4-1.4-0.4c-0.5-0.2-0.9-0.5-1.1-0.8c-1.1-1.3-1.7-3-1.7-5.2
		c0-0.9,0.1-2.2,0.3-3.9c0.2-1.7,0.3-3,0.3-3.8c0-0.6,0-1.2-0.1-1.7c0-0.1-0.5-0.6-1.4-1.4c-1.1-1-1.8-1.7-2.1-2
		c-0.7-0.7-1-1.8-1-3.2c0-1.2,0.2-2.3,0.6-3.5c0.1-0.2,0.4-0.7,0.9-1.3c0.5-0.6,1-1,1.3-1c0.4-0.1,1.1-0.2,2-0.4
		c0.4-0.2,0.7-0.6,0.7-1c0.2-2.8,0.4-4.3,0.4-4.6c0-0.4-0.2-0.5-0.7-0.5c-1.7,0-3.2,0.3-4.4,1c-1.7,0.9-3,1.3-3.8,1.3
		c-0.3,0-0.6,0-0.8-0.1c-0.2-0.1-0.6-0.3-1.3-0.7c-0.6-0.4-1-0.6-1.2-0.5c-0.5,0.6-0.7,1-0.6,1.3c0.4,1.4,0.7,2.8,0.7,4
		c0,0.3,0,1-0.1,2.2c-0.1,1-0.1,1.8,0,2.6c0.1,1.2,0,3-0.3,5.2c-0.2,1.9-0.4,3.8-0.6,5.6c0,0.3,0.1,0.7,0.2,1.4
		c0.2,0.7,0.3,1.1,0.3,1.2c0.2,1.9,0.2,3.5,0,4.6c-0.2,1.3-0.3,2-0.4,2.2c-0.3,1.1-0.8,2.1-1.5,2.9c-0.4,0.5-1.5,0.7-3.2,0.7
		c-1.2,0-1.9-0.1-2.3-0.4c-1.3-0.9-2.3-2.6-2.9-5.3c-0.6-2.9-1.4-4.9-2.3-5.8c-0.4-0.5-1.5-2.1-3.1-5c-0.3-0.5-0.5-1.1-0.8-1.6
		c-0.4-0.7-0.9-1.3-1.5-1.8c-0.7,0.3-1.6,3.3-2.7,8.9c0,0.1-0.2,1.3-0.5,3.8c-0.2,1.5-0.5,2.6-0.8,3.3c-0.6,1.1-1.6,1.6-2.9,1.4
		c-3.2-0.6-4.9-2.6-4.9-6.2c0-1.1,0.2-2.7,0.6-4.6c0.5-2.4,1-4.7,1.5-7.1c0.5-2.8,0.9-5.3,1-7.6c0.2-3.9,0.4-5.9,0.4-6
		c0-0.1-0.1-0.3-0.3-0.6c-0.2-0.3-0.3-0.6-0.3-0.7c0-3,0.1-5,0.2-5.9c0.1-0.9,0.6-1.8,1.5-2.7c0.9-0.9,1.9-1.3,2.9-1.3
		c0.4,0,0.8,0.1,1.2,0.3c0.1,0,0.6,0.1,1.5,0.3c0.7,0.1,1.2,0.4,1.5,0.6c0.9,0.8,1.4,2.3,1.6,4.5c0.1,1.8,0.2,3.5,0.3,5.3
		c0.2,1.3,0.8,2.7,1.8,4c0.9,1.1,1.7,2.2,2.6,3.3c0.6,0.9,1.1,1.7,1.7,2.5c0.8,1.1,1.5,1.7,1.9,1.6c0-0.4,0.1-1.4,0.4-2.8
		c0.2-1.3,0.3-2,0.3-2.1v-5.9c0-0.1,0.1-0.6,0.2-1.6c0.1-1,0.2-1.7,0.2-2.3c0.1-1,0.2-2.8,0.4-5.1c0.1-0.5,0.4-1,0.8-1.3
		c0.4-0.3,0.9-0.5,1.5-0.5c1.1,0,2.2,0.5,3.2,1.5c1,1,1.5,2,1.5,3.1c0.4-0.5,1.2-1.2,2.5-2.1c0.1-0.1,0.9-0.4,2.3-0.9
		c1.4-0.5,2.2-0.8,2.3-0.8c1.3-0.2,2.1-0.4,2.3-0.4c0.8,0,1.4,0.2,2,0.7c0.6-0.4,1.1-0.7,1.7-1.1c0.7-0.4,1.3-0.7,1.7-0.7
		c0.3,0,0.7,0.1,1.4,0.3c0.6,0.2,1.2,0.3,1.5,0.2c1.1-0.1,2.5-0.1,4.2-0.2c2.3-0.1,5,0.1,8.1,0.6c0.3,0.1,0.8,0.2,1.7,0.5
		c0.8,0.3,1.3,0.5,1.5,0.6c1.4,1,2.5,2.5,3.4,4.4C206.6,12.1,207.1,14,207.2,16z M340.1,15.5c-0.1,0.2-0.3,0.3-0.7,0.3
		c-0.5,0-1.7-0.3-3.6-0.9c-0.1,0-0.5,0.1-1.2,0.3c-0.9,0.2-1.7,0.4-2.5,0.5c-1.7,0.2-3.6,0.3-5.8,0.4c-4.1,0-7.2,0.3-9.3,0.8
		c-1.9,0.3-3.8,0.6-5.6,0.9c-2.3,0.6-3.4,1.8-3.4,3.6c0,0.4,0,0.8,0.1,1.3c2.1,0,4.1,0,6.2,0c2.4,0,4.5-0.3,6-0.9
		c0.2-0.1,0.7,0.1,1.3,0.7c1.3,1.2,2.3,2.6,2.9,4.2c0.4,1,0.5,1.9,0.4,2.7c-0.1,0.6-0.2,1.3-0.3,1.9c-0.1,0.9-0.4,1.5-0.8,1.9
		c-0.4,0.4-1,0.8-1.9,1.1c-1.2,0.4-2,0.7-2.3,0.9c0.1,0.2,0.4,0.5,1,1c0.6,0.5,1,1,1.1,1.4c0.1,0.5,0.2,1.1,0.2,1.9
		c0,2-0.4,3.5-1.2,4.6c-0.6,0.8-1.8,1.4-3.6,1.7c-1.6,0.3-3.2,0.6-4.8,0.9c0,0-0.3,0.1-0.7,0.3c-0.5,0.2-0.8,0.3-1.1,0.3
		c-2.5,0-4.9-0.4-7.1-1.1c-2.9-1-4.9-2.4-6.2-4.3c-0.5-0.8-0.9-1.2-1.1-1.2c-0.1,0-0.2,0-0.4,0.1c-0.7,1.2-1.4,2.5-2.1,3.8
		c-1.1,1.8-2.3,3-3.4,3.4c-0.8,0.3-1.8,0.5-2.9,0.5c-2.5,0-5.8-0.8-9.7-2.4c-2.7-1.1-5.4-2.7-7.9-4.8c-2.5-2-4.2-3.8-5.1-5.4
		c-0.4-0.5-1-1.2-1.7-2.1c-0.2,0-0.3,0.1-0.5,0.3c-0.4,1-0.5,2.1-0.5,3.4c0,0.6,0.1,1.5,0.2,2.6c0.1,1.1,0.2,2,0.2,2.6
		c0,1.4-0.2,2.6-0.7,3.7c-0.6,1.4-1.3,2.1-2,2.1c-2.8,0.3-4.6-1-5.4-4.1c-0.3-1.2-0.5-3.8-0.6-7.7c0-0.5-0.3-0.8-0.8-0.8
		c-0.4-0.1-0.9-0.1-1.6-0.1c-1.4,0-3,0.2-4.7,0.5c-1.8,0.3-3.1,0.7-3.9,1.1c-0.2,0.4-0.5,0.9-0.8,1.5c-0.4,0.6-1,1.9-1.8,3.9
		c-1.3,2.9-2.5,4.6-3.8,5.1c-0.9-0.4-2.1-1.1-3.8-1.9c-0.2-0.1-0.4-0.7-0.8-1.8c-0.2-0.8-0.4-1.6-0.4-2.4c0-1.5,0.4-2.9,1.3-3.9
		c1.1-1.4,2.1-3.2,2.8-5.4c1.2-3.8,1.9-5.8,2.1-6.1c0.1-0.1,0.3-0.4,0.8-0.8c0.5-0.4,0.8-0.7,0.9-0.9c0.3-0.4,0.8-1.1,1.3-2.1
		c1.7-3.3,3.4-6.6,5.1-9.9c2.4-4.2,4.8-6.9,7.2-8.1c0.3-0.2,0.8-0.3,1.4-0.3c0.9,0,1.6,0.2,2,0.6c2.3,2.1,4,5,5,8.9
		c0.6,2.3,1.1,5.4,1.4,9.3c0.6,0,1.3-0.7,2.1-2c1-1.9,1.6-2.9,1.8-3.1c2.7-3,6-5.4,9.9-7.2c3.9-1.8,7.6-2.7,11.3-2.7
		c1.1,0,2.2,0.1,3.2,0.3c0.7,0.1,1.4,0.7,2.3,1.7c0.9,1,1.5,2,1.8,2.9c0.6,1.8,0.9,3.7,0.9,5.8c0,0.8-0.1,1.5-0.2,2.1
		c-0.3,1.1-0.8,2.1-1.5,3.1c-0.8,1.2-1.7,1.9-2.6,2.2c-0.2,0.1-0.5,0.1-0.8,0.1c-1,0-2-0.3-3.3-0.8c-1.2-0.5-1.9-1.1-2.1-1.7
		c-0.6-1.5-0.7-2.9-0.4-4.2c0-0.1,0.1-0.4,0.4-0.9c0.1-0.4,0.2-0.7,0.2-0.9c0-0.4-0.1-0.7-0.4-0.9c-2.9-0.3-6,1-9.2,4
		c-3.2,3-4.7,5.9-4.6,8.8c0,0.8,1.2,2,3.6,3.6c1.3,0.9,2.8,1.7,4.7,2.4c2.2,0.8,4,1.2,5.5,1.2c1.6,0,3.4-0.7,5.4-2
		c0.9-0.6,1.7-1,2.3-1.2c0.5,0.5,1.2,1.1,2.1,1.9c0.4-0.2,0.6-1,0.6-2.2c0-1.5,0.1-2.4,0.2-2.7c0.3-1.2,0.9-3.2,1.7-5.8
		c0.6-1.4,1.5-3.5,2.7-6.3c0-0.7,0-1.7,0.1-2.9c0.2-1.3,0.7-2.4,1.3-3.5c0.7-1.1,2-1.9,4-2.5c0.6-0.2,1.8-0.4,3.8-0.5
		c2.6-0.3,4.3-0.4,4.9-0.5c1.8-0.3,3.6-0.7,5.4-1c2.4-0.4,4.3-0.6,5.9-0.6c0.3,0,0.9-0.2,1.7-0.5c1-0.4,1.7-0.6,2.1-0.7
		c0.2,0,1.1-0.3,2.8-0.7c1.1-0.3,2.1-0.4,2.8-0.4c1.9,0,3.5,0.9,4.6,2.8c1,1.6,1.5,3.5,1.5,5.5C340.8,13.7,340.6,14.7,340.1,15.5z
		 M109.6,13.7c-0.4,0.7-1.1,1.3-2.3,1.6c-0.7,0.1-1.4,0.2-2.1,0.4c-1.4,0.5-2.6,0.8-3.7,0.9c-1.3,0.2-2.2,0.3-2.5,0.4
		c-1.2,0.3-2.4,0.5-3.5,0.8c-1.3,0.3-2.8,0.9-4.4,1.7c-0.7,0.3-1.1,1.3-1.2,2.8c0.2,0.4,0.4,0.5,0.7,0.5c1.1,0,2.7-0.3,4.9-0.9
		c2.2-0.7,3.8-1,4.8-1c0.4,0,0.7,0,1,0c1.3,0.2,2.3,1.3,3.2,3.3c0.7,1.7,1.1,3.3,1.1,4.9c0,0.3,0,0.6-0.1,0.8c-0.1,0.5-1,1-2.8,1.5
		c-1.2,0.3-3.1,0.5-5.5,0.5c-1.9,0-5.1,0.6-9.6,1.8c-0.4,0.1-0.6,0.4-0.7,0.9c-0.1,0.5,0,0.8,0.1,1c0.2,0.4,0.6,0.6,1.2,0.7
		c0.6,0.1,1,0.2,1,0.3c0.8,0.7,1.6,1,2.5,1c0.7,0,1.7-0.2,2.8-0.7c1.2-0.5,1.9-0.7,2.4-0.7c0.4,0,0.8,0.1,1.1,0.4
		c1.8,1.8,2.8,3.8,2.8,5.9c0,1-0.2,1.9-0.7,2.8c-1.2,2.2-3.5,3.2-7,3.1c-2.4-0.1-4.6-0.6-6.4-1.7c-1-0.3-2.4-0.9-4.3-1.9
		c-1-0.7-1.9-2-2.7-3.8c-0.7-1.6-1.1-3.2-1.3-4.7c0-0.5,0-1.1,0-1.6c0-2.9,1-6.9,3-11.8c0.8,0.2,1.2-0.2,1.2-1.3
		c0-0.5-0.1-0.9-0.4-1.1c-0.4,0-0.8,0-1.2-0.1c-1.3-1.4-2-3.1-2-5.3c0-2,0.6-3.5,1.7-4.5c0.4-0.3,0.9-0.6,1.6-0.8
		c0.6-0.1,1.1-0.2,1.7-0.4C84.5,9.3,85,9,85.7,8.7c5.3-1.5,11.1-2.9,17.4-4.1c0.3-0.1,0.6-0.1,0.9-0.1c1.9,0,3.3,1.2,4.1,3.5
		c0,0,0.3,0.8,1,2.5c0.4,1,0.6,1.8,0.6,2.3C109.8,13.1,109.8,13.4,109.6,13.7z M140.6,10.3c0.1,0.3,0.2,0.7,0.2,1.2
		c0,1-0.2,2-0.7,2.9c-1.4,0.3-4.4,0.7-9.2,1.2c-3.3,0.3-6.2,1.1-8.7,2.2c-0.2,0.1-0.4,0.4-0.7,1.1c-0.4,0.9-0.6,1.4-0.6,1.4
		c-0.2,0.3-0.5,0.7-0.9,1.3c0.5,0.3,1.2,0.4,1.9,0.4c0.8,0,1.8-0.2,3-0.4c0.9-0.2,1.9-0.5,2.8-0.7c0.4-0.1,0.8-0.3,1.3-0.6
		c0.7-0.4,1.2-0.7,1.4-0.8c0.1-0.1,0.3-0.1,0.4-0.1c0.5,0,1.2,0.2,1.9,0.6c0.7,0.4,1.2,0.9,1.5,1.4c0.9,1.7,1.5,3,1.6,3.9
		c0.3,2,0.2,3.2-0.4,3.7c-0.9,0.7-2.4,1.3-4.5,1.9c-2.1,0.6-3.8,0.9-5.1,0.8c-0.1,0-0.4,0.1-0.8,0.4c-0.4,0.2-0.7,0.4-0.8,0.4
		c-1.7,0.2-4.2,0.6-7.5,1.1c-0.4,0.1-0.7,0.3-1,0.6c-0.3,0.3-0.4,0.6-0.4,0.9c0,0.2,0.1,0.3,0.2,0.4c1.2,1,2.9,1.5,5.1,1.5
		c3.1,0,5.2-0.7,6.3-2.1c0.1-0.2,0.3-0.2,0.5-0.3c0.3,0,0.5,0,0.6,0.1c1.1,0.7,1.9,1.8,2.5,3.2c0.6,1.4,0.9,2.8,0.8,4.3
		c-0.2,3.3-2,5.2-5.2,5.5c-0.7,0.1-1.7,0.3-3,0.5c-1.4,0.1-3.5-0.1-6.3-0.8c-2.9-0.7-4.7-1.5-5.3-2.3c-0.7-0.9-1.5-2.3-2.5-4.1
		c-1.2-2.4-1.8-4.3-1.9-5.7c0-0.7,0.1-1.8,0.5-3.5c0.2-1.2,0.5-2.4,0.7-3.7c0.3-1.7,0.7-3.3,1.2-4.8c0.3-0.8,1.1-2.7,2.6-5.8
		c0.1-0.2,0.2-1.2,0.4-3c0.1-1.8,0.3-3.1,0.6-3.8c0.2-0.6,0.8-1.1,1.7-1.4c0.7-0.3,1.5-0.5,2.3-0.8c1-0.6,1.8-0.9,2.5-1
		c0.5,0,1.1-0.1,1.7-0.1c0.7-0.1,3-0.6,7.1-1.6c3.3-0.8,5.7-1.1,7.1-1c1.6,0.2,2.7,0.7,3.2,1.6C139,7.3,139.7,8.6,140.6,10.3z
		 M197.9,14.9c0.1-0.9-1-1.5-3.4-1.9c-1.6-0.1-3.2-0.2-4.8-0.3c-0.7-0.1-1.1,0.2-1.2,0.8c0.2,1.3,0.5,3.1,1,5.3
		c0.1,0.4,0.5,0.6,1.1,0.6c1,0,2.5-0.6,4.6-1.7C196.9,16.7,197.8,15.8,197.9,14.9z M61,12.9c-0.3,0-0.5,0.2-0.5,0.7
		c0.1,0.7,0.1,1.6,0.1,2.8c-0.3,1.6-0.6,3.8-0.9,6.4c1.7-0.3,3-1.1,4.1-2.5c1-1.2,1.5-2.5,1.5-3.8c0-1.1-0.4-2-1.1-2.7
		C63.5,13.2,62.4,12.9,61,12.9z M254.1,19.1c0-0.3-0.1-1.1-0.3-2.3c0-0.2-0.2-0.4-0.5-0.7c-0.3-0.2-0.6-0.4-0.9-0.4
		c-0.7,1.4-1.5,2.8-2.2,4.2c-1,1.8-1.4,3.1-1.4,4c1.8,0,2.7,0,2.7,0c1-0.1,1.6-0.2,2-0.5C253.7,23.2,254,21.8,254.1,19.1z
		 M317.8,34.6c-2.4-0.2-4-0.3-4.9-0.3h-4.6c-0.6,0-1.5,0-2.8,0c-1.1,0.1-1.6,0.6-1.6,1.5c1.9,0.8,3.4,1.2,4.7,1.2
		c0.9,0,1.9-0.2,2.8-0.6c0.4-0.2,1-0.2,1.6-0.1c0.6,0.1,1.2,0.1,1.7,0C315.6,36,316.6,35.5,317.8,34.6z"/>
</g>
</svg>
