<?xml version="1.0" encoding="UTF-8" standalone="no"?>
<!-- Created with Inkscape (http://www.inkscape.org/) -->

<svg
   xmlns:dc="http://purl.org/dc/elements/1.1/"
   xmlns:cc="http://creativecommons.org/ns#"
   xmlns:rdf="http://www.w3.org/1999/02/22-rdf-syntax-ns#"
   xmlns:svg="http://www.w3.org/2000/svg"
   xmlns="http://www.w3.org/2000/svg"
   version="1.2"
   width="100%"
   height="100%"
   viewBox="0 0 344.7 58.5"
   id="Layer_1"
   xml:space="preserve"><metadata
     id="metadata11"><rdf:RDF><cc:Work
         rdf:about=""><dc:format>image/svg+xml</dc:format><dc:type
           rdf:resource="http://purl.org/dc/dcmitype/StillImage" /><dc:title></dc:title></cc:Work></rdf:RDF></metadata><defs
     id="defs9" /><g
     id="g3"
     style="fill:#ffffff"><path
       d="m 240.2,9.8 c 0.1,1.2 0.1,1.6 0.1,1.4 0,1 -0.4,1.9 -1.3,2.5 -0.6,0.4 -3,1 -7.3,1.9 -1.9,0.3 -3.7,0.6 -5.6,0.9 -2.1,0.4 -4.8,1.1 -8.2,2.3 -0.6,0.2 -1.1,0.8 -1.7,1.8 -0.6,1 -0.9,1.8 -1,2.5 0.4,0.4 1.1,0.7 2.1,0.7 0.4,0 1.6,-0.2 3.8,-0.5 2.4,-0.3 4.1,-0.7 5.2,-1.2 1.1,-0.6 2.2,-1.1 3.3,-1.7 0.9,0.3 1.6,1.2 2.3,2.7 0.7,1.5 1,2.9 1,4.3 0,1.5 -0.5,2.7 -1.5,3.4 -0.8,0.6 -2,0.9 -3.6,1.1 -1.3,0.1 -2.6,0.2 -3.8,0.4 -1.7,0.4 -4.3,0.8 -7.8,1.4 -0.8,0.1 -1.7,0.1 -2.5,0.1 -1,0.1 -1.8,0.3 -2.4,0.6 -0.6,0.3 -0.9,0.8 -0.9,1.3 0,0.1 0,0.3 0.1,0.4 1.2,1.6 2.7,2.4 4.6,2.4 1.3,0 2.7,-0.4 4.1,-1.1 0.3,-0.1 1.2,-0.4 2.9,-1.1 1.3,-0.5 2.1,-0.7 2.5,-0.7 0.1,0 0.1,0 0.2,0 1.7,1.5 2.6,3.4 2.6,5.9 0,1.5 -0.4,2.8 -1.2,3.9 -0.9,1.2 -2.2,2.1 -3.8,2.4 -0.3,0.2 -0.9,0.5 -1.8,0.9 -0.8,0.3 -2.1,0.4 -3.8,0.4 -5.5,-0.2 -9.6,-2.1 -12.1,-5.7 -1.5,-2.1 -2.2,-4.7 -2.2,-7.7 0,-1.6 0.2,-3.2 0.6,-4.9 0.7,-2.7 1.7,-5.5 3.2,-8.4 1.5,-2.9 3,-5.9 4.6,-8.8 0.1,-0.2 0.3,-1 0.6,-2.3 0.3,-1 0.7,-1.8 1.2,-2.4 0.5,-0.6 1.5,-1.1 2.9,-1.5 1.2,-0.3 2.4,-0.6 3.7,-0.8 3.7,-0.8 8.9,-2.1 15.5,-3.9 0.3,-0.1 0.8,-0.1 1.7,0.2 0.9,0.3 1.5,0.6 1.7,1 0.4,0.9 0.9,2.2 1.7,3.8 0.1,0.6 0.2,1.3 0.3,2.1 z M 46,30.9 c -0.1,1 -0.5,2.4 -1.2,4.1 -0.8,2 -1.3,3.3 -1.5,4.2 -0.6,2.8 -1,5.6 -1.3,8.3 -0.1,0.4 -0.1,1.1 0,1.9 0.1,1.2 0.1,1.9 0.1,2.1 0,2.5 -0.8,3.9 -2.5,4.3 l -1.1,0.4 c -0.5,0.2 -0.9,0.2 -1.1,0.2 -0.7,-0.2 -1.9,-0.7 -3.3,-1.3 -0.5,-0.3 -0.8,-1 -0.9,-2.1 v -2.5 c 0,-0.2 0,-0.7 0,-1.3 0,-0.6 0,-1.1 0,-1.3 0,-0.2 0.1,-0.5 0.2,-0.9 0.1,-0.4 0.2,-0.7 0.2,-0.9 0,-0.4 -0.2,-0.8 -0.5,-1.1 -0.5,-0.1 -0.8,-0.1 -0.9,0 -2.5,1.4 -5.5,2.2 -8.9,2.4 C 19.9,47.5 16.6,47.1 13.5,46 10.3,44.9 7.9,43.4 6.4,41.4 5.8,40.6 5.2,39.4 4.8,37.7 4.4,36 4.2,34.4 4.2,32.7 c 0,-1.1 0.1,-2.1 0.3,-3 0.2,-0.9 0.6,-2.2 1.1,-3.8 0.1,-0.4 1,-1.9 2.6,-4.4 0.8,-1.1 2,-2.6 3.5,-4.6 0.6,-0.9 2.2,-2.5 4.8,-4.7 1.8,-1.5 3.5,-3.1 5.3,-4.6 1.7,-1.5 3,-2.5 3.9,-3 1.3,-0.8 2.9,-1.2 4.8,-1.4 0.5,0 1.2,0.1 2.1,0.4 0.7,0.3 1.4,0.6 2.2,0.9 1.2,0.5 2.1,1.7 2.9,3.5 0.8,1.8 1.1,3.5 1.1,5.3 0,2 -0.6,3.3 -1.7,3.7 -0.7,0.3 -1.7,0.2 -2.8,-0.4 -0.4,-0.2 -1,-1.1 -1.7,-2.8 -0.6,-1.5 -1.3,-2.2 -2,-2.2 -1.1,0 -2.6,0.7 -4.6,2 -1.6,1.1 -3.1,2.4 -4.4,3.7 -3.5,3.5 -6,6.3 -7.5,8.4 -1.8,2.5 -3.1,5.1 -3.8,7.6 -0.2,0.7 -0.1,1.5 0.4,2.2 0.6,1 1.7,1.8 3.4,2.2 1.5,0.3 3,0.6 4.5,0.9 0.3,0.2 0.7,0.5 1.3,0.8 1,0 1.9,0 2.8,0 5.6,-0.1 9.4,-1.2 11.5,-3.5 0.3,-0.3 0.4,-0.7 0.4,-1.3 0,-0.4 -0.2,-0.7 -0.5,-0.8 -0.4,0.1 -2.6,0.5 -6.5,1.3 -2.7,0.6 -5,0.9 -7.1,1.1 -0.5,0 -1.1,-0.4 -1.7,-1.2 -0.6,-0.8 -1,-1.6 -1.1,-2.5 -0.1,-0.3 -0.1,-0.7 -0.1,-1.2 0,-2.6 0.6,-4.1 1.7,-4.6 2.2,-1 5.6,-1.8 10,-2.5 6,-1 9.4,-1.6 10,-1.7 0.5,-0.1 1.1,-0.1 1.8,0 0.9,0.1 1.5,0.3 1.9,0.6 1.1,0.9 1.9,2.1 2.5,3.7 0.3,1.4 0.6,2.8 0.5,4.1 z m 31.5,11.6 c -0.3,0.6 -1.3,1.9 -2.8,3.8 -0.3,0.4 -1.1,0.6 -2.5,0.6 -0.7,0 -1.3,-0.1 -1.8,-0.2 -0.4,-0.2 -1.1,-0.8 -2.1,-1.9 -0.6,-0.7 -1.3,-1.5 -1.9,-2.2 -2.2,-2.3 -4.2,-3.9 -5.8,-5 -0.7,-0.4 -1.7,-1.1 -3,-2.1 -0.3,0 -0.7,0.3 -1,0.9 -0.3,0.9 -0.4,1.5 -0.4,2 0,0.1 0,1.1 0.2,2.7 0.2,1.9 0.3,3.3 0.3,4.2 0,1 -0.1,1.7 -0.2,2 L 56,48.1 c -0.2,0.4 -0.5,0.6 -0.8,0.6 -1.7,0.3 -3,0.1 -4,-0.4 -1,-0.6 -1.8,-1.6 -2.3,-3 -0.4,-1.2 -0.7,-2.5 -0.7,-3.8 0,-0.9 0.1,-2.2 0.4,-4 0.3,-1.7 0.4,-2.9 0.4,-3.6 0,-0.3 0,-0.6 0,-0.9 0,-0.1 -0.3,-0.4 -0.7,-0.9 C 47.8,31.6 47.6,31.2 47.5,30.9 47.2,29.8 47,28.8 47,28 c 0,-1.6 0.5,-2.9 1.7,-3.8 0.1,-0.1 0.5,-0.1 1.3,-0.2 0.6,-0.1 1,-0.4 1.2,-0.9 0.8,-2.1 1.3,-4.4 1.7,-7.1 0,-0.1 -0.1,-0.2 -0.3,-0.4 l -0.5,-0.4 c -0.7,-0.8 -1.1,-1.7 -1.3,-2.5 -0.1,-0.3 -0.1,-0.6 -0.1,-1 0,-1.3 0.4,-2.7 1.1,-4 0.8,-1.5 1.7,-2.5 2.9,-2.9 1.9,-0.7 4.2,-1.1 7,-1 3.3,0 6.2,1.7 8.6,5.2 2.2,3.2 3.3,6.6 3.3,10.2 0,1.5 -0.2,2.8 -0.7,3.9 -0.3,1 -0.9,2.4 -1.7,4.2 -0.5,0.7 -1,1.3 -1.4,2 -0.8,1.1 -1.2,1.8 -1.2,1.9 0,0.3 0.3,0.7 1,1.3 0.6,0.6 1.5,1.2 2.8,2 1.6,1 2.7,1.7 3.3,2.1 1.6,1.2 2.4,2.7 2.4,4.6 -0.2,0.2 -0.4,0.8 -0.6,1.3 z M 207.2,16 c 0.1,1.8 -0.7,3.7 -2.3,5.7 -1.2,1.5 -2.7,2.9 -4.4,4.1 -1.5,1 -3.8,2 -7.1,3.1 L 190,30 c -0.4,0.2 -0.8,1.4 -1.2,3.9 -0.4,2.1 -0.6,3.7 -0.6,4.7 v 6.2 c -0.1,0.7 -0.3,1.3 -0.5,2 -0.3,0.9 -0.8,1.5 -1.5,1.9 -0.7,0.4 -1.5,0.4 -2.4,0.2 -0.7,-0.2 -1.1,-0.4 -1.4,-0.4 -0.5,-0.2 -0.9,-0.5 -1.1,-0.8 -1.1,-1.3 -1.7,-3 -1.7,-5.2 0,-0.9 0.1,-2.2 0.3,-3.9 0.2,-1.7 0.3,-3 0.3,-3.8 0,-0.6 0,-1.2 -0.1,-1.7 0,-0.1 -0.5,-0.6 -1.4,-1.4 -1.1,-1 -1.8,-1.7 -2.1,-2 -0.7,-0.7 -1,-1.8 -1,-3.2 0,-1.2 0.2,-2.3 0.6,-3.5 0.1,-0.2 0.4,-0.7 0.9,-1.3 0.5,-0.6 1,-1 1.3,-1 0.4,-0.1 1.1,-0.2 2,-0.4 0.4,-0.2 0.7,-0.6 0.7,-1 0.2,-2.8 0.4,-4.3 0.4,-4.6 0,-0.4 -0.2,-0.5 -0.7,-0.5 -1.7,0 -3.2,0.3 -4.4,1 -1.7,0.9 -3,1.3 -3.8,1.3 -0.3,0 -0.6,0 -0.8,-0.1 -0.2,-0.1 -0.6,-0.3 -1.3,-0.7 -0.6,-0.4 -1,-0.6 -1.2,-0.5 -0.5,0.6 -0.7,1 -0.6,1.3 0.4,1.4 0.7,2.8 0.7,4 0,0.3 0,1 -0.1,2.2 -0.1,1 -0.1,1.8 0,2.6 0.1,1.2 0,3 -0.3,5.2 -0.2,1.9 -0.4,3.8 -0.6,5.6 0,0.3 0.1,0.7 0.2,1.4 0.2,0.7 0.3,1.1 0.3,1.2 0.2,1.9 0.2,3.5 0,4.6 -0.2,1.3 -0.3,2 -0.4,2.2 -0.3,1.1 -0.8,2.1 -1.5,2.9 -0.4,0.5 -1.5,0.7 -3.2,0.7 -1.2,0 -1.9,-0.1 -2.3,-0.4 -1.3,-0.9 -2.3,-2.6 -2.9,-5.3 -0.6,-2.9 -1.4,-4.9 -2.3,-5.8 -0.4,-0.5 -1.5,-2.1 -3.1,-5 -0.3,-0.5 -0.5,-1.1 -0.8,-1.6 -0.4,-0.7 -0.9,-1.3 -1.5,-1.8 -0.7,0.3 -1.6,3.3 -2.7,8.9 0,0.1 -0.2,1.3 -0.5,3.8 -0.2,1.5 -0.5,2.6 -0.8,3.3 -0.6,1.1 -1.6,1.6 -2.9,1.4 -3.2,-0.6 -4.9,-2.6 -4.9,-6.2 0,-1.1 0.2,-2.7 0.6,-4.6 0.5,-2.4 1,-4.7 1.5,-7.1 0.5,-2.8 0.9,-5.3 1,-7.6 0.2,-3.9 0.4,-5.9 0.4,-6 0,-0.1 -0.1,-0.3 -0.3,-0.6 -0.2,-0.3 -0.3,-0.6 -0.3,-0.7 0,-3 0.1,-5 0.2,-5.9 0.1,-0.9 0.6,-1.8 1.5,-2.7 0.9,-0.9 1.9,-1.3 2.9,-1.3 0.4,0 0.8,0.1 1.2,0.3 0.1,0 0.6,0.1 1.5,0.3 0.7,0.1 1.2,0.4 1.5,0.6 0.9,0.8 1.4,2.3 1.6,4.5 0.1,1.8 0.2,3.5 0.3,5.3 0.2,1.3 0.8,2.7 1.8,4 0.9,1.1 1.7,2.2 2.6,3.3 0.6,0.9 1.1,1.7 1.7,2.5 0.8,1.1 1.5,1.7 1.9,1.6 0,-0.4 0.1,-1.4 0.4,-2.8 0.2,-1.3 0.3,-2 0.3,-2.1 v -5.9 c 0,-0.1 0.1,-0.6 0.2,-1.6 0.1,-1 0.2,-1.7 0.2,-2.3 0.1,-1 0.2,-2.8 0.4,-5.1 0.1,-0.5 0.4,-1 0.8,-1.3 0.4,-0.3 0.9,-0.5 1.5,-0.5 1.1,0 2.2,0.5 3.2,1.5 1,1 1.5,2 1.5,3.1 0.4,-0.5 1.2,-1.2 2.5,-2.1 0.1,-0.1 0.9,-0.4 2.3,-0.9 1.4,-0.5 2.2,-0.8 2.3,-0.8 1.3,-0.2 2.1,-0.4 2.3,-0.4 0.8,0 1.4,0.2 2,0.7 0.6,-0.4 1.1,-0.7 1.7,-1.1 C 183,4.3 183.6,4 184,4 c 0.3,0 0.7,0.1 1.4,0.3 0.6,0.2 1.2,0.3 1.5,0.2 1.1,-0.1 2.5,-0.1 4.2,-0.2 2.3,-0.1 5,0.1 8.1,0.6 0.3,0.1 0.8,0.2 1.7,0.5 0.8,0.3 1.3,0.5 1.5,0.6 1.4,1 2.5,2.5 3.4,4.4 0.8,1.7 1.3,3.6 1.4,5.6 z m 132.9,-0.5 c -0.1,0.2 -0.3,0.3 -0.7,0.3 -0.5,0 -1.7,-0.3 -3.6,-0.9 -0.1,0 -0.5,0.1 -1.2,0.3 -0.9,0.2 -1.7,0.4 -2.5,0.5 -1.7,0.2 -3.6,0.3 -5.8,0.4 -4.1,0 -7.2,0.3 -9.3,0.8 -1.9,0.3 -3.8,0.6 -5.6,0.9 -2.3,0.6 -3.4,1.8 -3.4,3.6 0,0.4 0,0.8 0.1,1.3 2.1,0 4.1,0 6.2,0 2.4,0 4.5,-0.3 6,-0.9 0.2,-0.1 0.7,0.1 1.3,0.7 1.3,1.2 2.3,2.6 2.9,4.2 0.4,1 0.5,1.9 0.4,2.7 -0.1,0.6 -0.2,1.3 -0.3,1.9 -0.1,0.9 -0.4,1.5 -0.8,1.9 -0.4,0.4 -1,0.8 -1.9,1.1 -1.2,0.4 -2,0.7 -2.3,0.9 0.1,0.2 0.4,0.5 1,1 0.6,0.5 1,1 1.1,1.4 0.1,0.5 0.2,1.1 0.2,1.9 0,2 -0.4,3.5 -1.2,4.6 -0.6,0.8 -1.8,1.4 -3.6,1.7 -1.6,0.3 -3.2,0.6 -4.8,0.9 0,0 -0.3,0.1 -0.7,0.3 -0.5,0.2 -0.8,0.3 -1.1,0.3 -2.5,0 -4.9,-0.4 -7.1,-1.1 -2.9,-1 -4.9,-2.4 -6.2,-4.3 -0.5,-0.8 -0.9,-1.2 -1.1,-1.2 -0.1,0 -0.2,0 -0.4,0.1 -0.7,1.2 -1.4,2.5 -2.1,3.8 -1.1,1.8 -2.3,3 -3.4,3.4 -0.8,0.3 -1.8,0.5 -2.9,0.5 -2.5,0 -5.8,-0.8 -9.7,-2.4 -2.7,-1.1 -5.4,-2.7 -7.9,-4.8 -2.5,-2 -4.2,-3.8 -5.1,-5.4 -0.4,-0.5 -1,-1.2 -1.7,-2.1 -0.2,0 -0.3,0.1 -0.5,0.3 -0.4,1 -0.5,2.1 -0.5,3.4 0,0.6 0.1,1.5 0.2,2.6 0.1,1.1 0.2,2 0.2,2.6 0,1.4 -0.2,2.6 -0.7,3.7 -0.6,1.4 -1.3,2.1 -2,2.1 -2.8,0.3 -4.6,-1 -5.4,-4.1 -0.3,-1.2 -0.5,-3.8 -0.6,-7.7 0,-0.5 -0.3,-0.8 -0.8,-0.8 -0.4,-0.1 -0.9,-0.1 -1.6,-0.1 -1.4,0 -3,0.2 -4.7,0.5 -1.8,0.3 -3.1,0.7 -3.9,1.1 -0.2,0.4 -0.5,0.9 -0.8,1.5 -0.4,0.6 -1,1.9 -1.8,3.9 -1.3,2.9 -2.5,4.6 -3.8,5.1 -0.9,-0.4 -2.1,-1.1 -3.8,-1.9 -0.2,-0.1 -0.4,-0.7 -0.8,-1.8 -0.2,-0.8 -0.4,-1.6 -0.4,-2.4 0,-1.5 0.4,-2.9 1.3,-3.9 1.1,-1.4 2.1,-3.2 2.8,-5.4 1.2,-3.8 1.9,-5.8 2.1,-6.1 0.1,-0.1 0.3,-0.4 0.8,-0.8 0.5,-0.4 0.8,-0.7 0.9,-0.9 0.3,-0.4 0.8,-1.1 1.3,-2.1 1.7,-3.3 3.4,-6.6 5.1,-9.9 2.4,-4.2 4.8,-6.9 7.2,-8.1 0.3,-0.2 0.8,-0.3 1.4,-0.3 0.9,0 1.6,0.2 2,0.6 2.3,2.1 4,5 5,8.9 0.6,2.3 1.1,5.4 1.4,9.3 0.6,0 1.3,-0.7 2.1,-2 1,-1.9 1.6,-2.9 1.8,-3.1 2.7,-3 6,-5.4 9.9,-7.2 3.9,-1.8 7.6,-2.7 11.3,-2.7 1.1,0 2.2,0.1 3.2,0.3 0.7,0.1 1.4,0.7 2.3,1.7 0.9,1 1.5,2 1.8,2.9 0.6,1.8 0.9,3.7 0.9,5.8 0,0.8 -0.1,1.5 -0.2,2.1 -0.3,1.1 -0.8,2.1 -1.5,3.1 -0.8,1.2 -1.7,1.9 -2.6,2.2 -0.2,0.1 -0.5,0.1 -0.8,0.1 -1,0 -2,-0.3 -3.3,-0.8 -1.2,-0.5 -1.9,-1.1 -2.1,-1.7 -0.6,-1.5 -0.7,-2.9 -0.4,-4.2 0,-0.1 0.1,-0.4 0.4,-0.9 0.1,-0.4 0.2,-0.7 0.2,-0.9 0,-0.4 -0.1,-0.7 -0.4,-0.9 -2.9,-0.3 -6,1 -9.2,4 -3.2,3 -4.7,5.9 -4.6,8.8 0,0.8 1.2,2 3.6,3.6 1.3,0.9 2.8,1.7 4.7,2.4 2.2,0.8 4,1.2 5.5,1.2 1.6,0 3.4,-0.7 5.4,-2 0.9,-0.6 1.7,-1 2.3,-1.2 0.5,0.5 1.2,1.1 2.1,1.9 0.4,-0.2 0.6,-1 0.6,-2.2 0,-1.5 0.1,-2.4 0.2,-2.7 0.3,-1.2 0.9,-3.2 1.7,-5.8 0.6,-1.4 1.5,-3.5 2.7,-6.3 0,-0.7 0,-1.7 0.1,-2.9 0.2,-1.3 0.7,-2.4 1.3,-3.5 0.7,-1.1 2,-1.9 4,-2.5 0.6,-0.2 1.8,-0.4 3.8,-0.5 2.6,-0.3 4.3,-0.4 4.9,-0.5 1.8,-0.3 3.6,-0.7 5.4,-1 2.4,-0.4 4.3,-0.6 5.9,-0.6 0.3,0 0.9,-0.2 1.7,-0.5 1,-0.4 1.7,-0.6 2.1,-0.7 0.2,0 1.1,-0.3 2.8,-0.7 1.1,-0.3 2.1,-0.4 2.8,-0.4 1.9,0 3.5,0.9 4.6,2.8 1,1.6 1.5,3.5 1.5,5.5 -0.2,0.6 -0.4,1.6 -0.9,2.4 z M 109.6,13.7 c -0.4,0.7 -1.1,1.3 -2.3,1.6 -0.7,0.1 -1.4,0.2 -2.1,0.4 -1.4,0.5 -2.6,0.8 -3.7,0.9 -1.3,0.2 -2.2,0.3 -2.5,0.4 -1.2,0.3 -2.4,0.5 -3.5,0.8 -1.3,0.3 -2.8,0.9 -4.4,1.7 -0.7,0.3 -1.1,1.3 -1.2,2.8 0.2,0.4 0.4,0.5 0.7,0.5 1.1,0 2.7,-0.3 4.9,-0.9 2.2,-0.7 3.8,-1 4.8,-1 0.4,0 0.7,0 1,0 1.3,0.2 2.3,1.3 3.2,3.3 0.7,1.7 1.1,3.3 1.1,4.9 0,0.3 0,0.6 -0.1,0.8 -0.1,0.5 -1,1 -2.8,1.5 -1.2,0.3 -3.1,0.5 -5.5,0.5 -1.9,0 -5.1,0.6 -9.6,1.8 -0.4,0.1 -0.6,0.4 -0.7,0.9 -0.1,0.5 0,0.8 0.1,1 0.2,0.4 0.6,0.6 1.2,0.7 0.6,0.1 1,0.2 1,0.3 0.8,0.7 1.6,1 2.5,1 0.7,0 1.7,-0.2 2.8,-0.7 1.2,-0.5 1.9,-0.7 2.4,-0.7 0.4,0 0.8,0.1 1.1,0.4 1.8,1.8 2.8,3.8 2.8,5.9 0,1 -0.2,1.9 -0.7,2.8 -1.2,2.2 -3.5,3.2 -7,3.1 -2.4,-0.1 -4.6,-0.6 -6.4,-1.7 -1,-0.3 -2.4,-0.9 -4.3,-1.9 -1,-0.7 -1.9,-2 -2.7,-3.8 -0.7,-1.6 -1.1,-3.2 -1.3,-4.7 0,-0.5 0,-1.1 0,-1.6 0,-2.9 1,-6.9 3,-11.8 0.8,0.2 1.2,-0.2 1.2,-1.3 0,-0.5 -0.1,-0.9 -0.4,-1.1 -0.4,0 -0.8,0 -1.2,-0.1 -1.3,-1.4 -2,-3.1 -2,-5.3 0,-2 0.6,-3.5 1.7,-4.5 C 81.1,10.3 81.6,10 82.3,9.8 82.9,9.7 83.4,9.6 84,9.4 84.5,9.3 85,9 85.7,8.7 91,7.2 96.8,5.8 103.1,4.6 c 0.3,-0.1 0.6,-0.1 0.9,-0.1 1.9,0 3.3,1.2 4.1,3.5 0,0 0.3,0.8 1,2.5 0.4,1 0.6,1.8 0.6,2.3 0.1,0.3 0.1,0.6 -0.1,0.9 z m 31,-3.4 c 0.1,0.3 0.2,0.7 0.2,1.2 0,1 -0.2,2 -0.7,2.9 -1.4,0.3 -4.4,0.7 -9.2,1.2 -3.3,0.3 -6.2,1.1 -8.7,2.2 -0.2,0.1 -0.4,0.4 -0.7,1.1 -0.4,0.9 -0.6,1.4 -0.6,1.4 -0.2,0.3 -0.5,0.7 -0.9,1.3 0.5,0.3 1.2,0.4 1.9,0.4 0.8,0 1.8,-0.2 3,-0.4 0.9,-0.2 1.9,-0.5 2.8,-0.7 0.4,-0.1 0.8,-0.3 1.3,-0.6 0.7,-0.4 1.2,-0.7 1.4,-0.8 0.1,-0.1 0.3,-0.1 0.4,-0.1 0.5,0 1.2,0.2 1.9,0.6 0.7,0.4 1.2,0.9 1.5,1.4 0.9,1.7 1.5,3 1.6,3.9 0.3,2 0.2,3.2 -0.4,3.7 -0.9,0.7 -2.4,1.3 -4.5,1.9 -2.1,0.6 -3.8,0.9 -5.1,0.8 -0.1,0 -0.4,0.1 -0.8,0.4 -0.4,0.2 -0.7,0.4 -0.8,0.4 -1.7,0.2 -4.2,0.6 -7.5,1.1 -0.4,0.1 -0.7,0.3 -1,0.6 -0.3,0.3 -0.4,0.6 -0.4,0.9 0,0.2 0.1,0.3 0.2,0.4 1.2,1 2.9,1.5 5.1,1.5 3.1,0 5.2,-0.7 6.3,-2.1 0.1,-0.2 0.3,-0.2 0.5,-0.3 0.3,0 0.5,0 0.6,0.1 1.1,0.7 1.9,1.8 2.5,3.2 0.6,1.4 0.9,2.8 0.8,4.3 -0.2,3.3 -2,5.2 -5.2,5.5 -0.7,0.1 -1.7,0.3 -3,0.5 -1.4,0.1 -3.5,-0.1 -6.3,-0.8 -2.9,-0.7 -4.7,-1.5 -5.3,-2.3 -0.7,-0.9 -1.5,-2.3 -2.5,-4.1 -1.2,-2.4 -1.8,-4.3 -1.9,-5.7 0,-0.7 0.1,-1.8 0.5,-3.5 0.2,-1.2 0.5,-2.4 0.7,-3.7 0.3,-1.7 0.7,-3.3 1.2,-4.8 0.3,-0.8 1.1,-2.7 2.6,-5.8 0.1,-0.2 0.2,-1.2 0.4,-3 0.1,-1.8 0.3,-3.1 0.6,-3.8 0.2,-0.6 0.8,-1.1 1.7,-1.4 0.7,-0.3 1.5,-0.5 2.3,-0.8 1,-0.6 1.8,-0.9 2.5,-1 0.5,0 1.1,-0.1 1.7,-0.1 0.7,-0.1 3,-0.6 7.1,-1.6 3.3,-0.8 5.7,-1.1 7.1,-1 1.6,0.2 2.7,0.7 3.2,1.6 0.3,0.9 1,2.2 1.9,3.9 z m 57.3,4.6 c 0.1,-0.9 -1,-1.5 -3.4,-1.9 -1.6,-0.1 -3.2,-0.2 -4.8,-0.3 -0.7,-0.1 -1.1,0.2 -1.2,0.8 0.2,1.3 0.5,3.1 1,5.3 0.1,0.4 0.5,0.6 1.1,0.6 1,0 2.5,-0.6 4.6,-1.7 1.7,-1 2.6,-1.9 2.7,-2.8 z M 61,12.9 c -0.3,0 -0.5,0.2 -0.5,0.7 0.1,0.7 0.1,1.6 0.1,2.8 -0.3,1.6 -0.6,3.8 -0.9,6.4 1.7,-0.3 3,-1.1 4.1,-2.5 1,-1.2 1.5,-2.5 1.5,-3.8 0,-1.1 -0.4,-2 -1.1,-2.7 -0.7,-0.6 -1.8,-0.9 -3.2,-0.9 z m 193.1,6.2 c 0,-0.3 -0.1,-1.1 -0.3,-2.3 0,-0.2 -0.2,-0.4 -0.5,-0.7 -0.3,-0.2 -0.6,-0.4 -0.9,-0.4 -0.7,1.4 -1.5,2.8 -2.2,4.2 -1,1.8 -1.4,3.1 -1.4,4 1.8,0 2.7,0 2.7,0 1,-0.1 1.6,-0.2 2,-0.5 0.2,-0.2 0.5,-1.6 0.6,-4.3 z m 63.7,15.5 c -2.4,-0.2 -4,-0.3 -4.9,-0.3 h -4.6 c -0.6,0 -1.5,0 -2.8,0 -1.1,0.1 -1.6,0.6 -1.6,1.5 1.9,0.8 3.4,1.2 4.7,1.2 0.9,0 1.9,-0.2 2.8,-0.6 0.4,-0.2 1,-0.2 1.6,-0.1 0.6,0.1 1.2,0.1 1.7,0 0.9,-0.3 1.9,-0.8 3.1,-1.7 z"
       id="path5"
       style="fill:#ffffff" /></g></svg>